<svg xmlns="http://www.w3.org/2000/svg" viewBox="10.002 25.516 979.995 632.404">
	<path d="M4671.2,4843c-350.2-43.8-744.2-172.9-1041.9-339.3c-461.9-258.3-901.8-724.5-1147-1212.6c-96.3-194.8-210.1-549.4-243-763.9l-26.3-179.5l-89.7-24.1c-186.1-50.3-623.8-227.6-871.2-352.4C391.9,1535.6-17.4,957.7,129.3,388.6C184,178.5,289,10,490.4-193.6c647.9-652.3,1889-1085.7,3578.8-1247.7c367.7-37.2,1490.6-37.2,1871.5,0c2048.8,190.4,3574.4,866.8,3898.4,1729.2c227.6,606.3-190.4,1236.7-1129.5,1702.9c-218.9,111.6-665.4,288.9-834,332.7c-89.8,24.1-91.9,26.3-107.3,144.5C7705,2989,7422.6,3564.7,7033,3978.4c-523.1,549.4-1182,849.3-1935,873.4C4942.6,4858.3,4750,4853.9,4671.2,4843z M5503,4098.8c477.2-116,965.3-455.3,1236.7-866.8c223.3-337.1,337.1-691.7,354.6-1114.1l13.1-284.6l-140.1-83.2c-76.6-43.8-218.9-111.6-315.2-148.8c-194.8-76.6-615.1-190.4-632.6-170.7c-6.6,6.6,17.5,85.4,50.3,175.1c236.4,604.1,159.8,1208.3-197,1556.3c-201.4,197-575.7,345.8-871.2,345.8c-317.4,0-680.7-146.7-888.7-359c-238.6-243-328.3-514.4-310.8-932.5c10.9-260.5,43.8-415.9,135.7-643.5c28.5-72.2,48.2-135.7,41.6-142.3c-17.5-19.7-437.8,94.1-632.6,170.7c-96.3,37.2-236.4,102.9-310.8,148.8l-137.9,81v201.4c0,1070.4,748.6,1941.5,1812.4,2110.1C4894.4,4171,5290.6,4149.1,5503,4098.8z M4472,2174.8c113.8-59.1,278-207.9,321.8-288.9c43.8-85.4,39.4-142.3-15.3-197c-96.3-96.3-389.6-15.3-577.9,157.6c-162,148.8-203.6,267-124.8,354.6c30.6,35,59.1,41.6,168.5,30.7C4318.8,2227.3,4419.5,2201,4472,2174.8z M5923.2,2201c159.8-144.5-201.4-512.2-538.5-547.2c-100.7-10.9-124.8-4.4-164.2,35c-59.1,59.1-59.1,120.4,6.6,229.8C5360.7,2146.3,5789.7,2321.4,5923.2,2201z M2232.8,927.1c260.5-118.2,383-429,269.2-680.7c-94.1-210.1-256.1-315.2-479.4-315.2s-385.2,105.1-479.4,315.2c-151,332.7,107.3,722.3,479.4,722.3C2092.7,968.7,2180.2,951.2,2232.8,927.1z M8186.5,927.1c260.5-118.2,383-429,269.2-680.7c-94.1-210.1-256.1-315.2-479.4-315.2c-313,0-551.6,258.3-518.8,564.7c13.1,137.9,54.7,223.3,151,319.6C7757.5,964.3,8000.5,1012.5,8186.5,927.1z M5209.6,226.7c260.5-118.2,383.1-429,269.2-680.7c-94.1-210.1-256.1-315.2-479.4-315.2c-223.3,0-385.2,105.1-479.4,315.2c-151,332.7,107.2,722.3,479.4,722.3C5069.6,268.2,5157.1,250.7,5209.6,226.7z" transform="matrix(0.1, 0, 0, -0.1, 0, 511)"/>
</svg>